# xmcd
#
# Track frame offsets: 
#        150
#        10976
#        23569
#        34270
#        46932
#        61743
#        74005
#        94386
#        104520
#        117005
#        127359
#        140160
#
# Disc length: 1982 seconds
#
# Revision: 0
# Processed by: cddbd v1.5.2PL0 Copyright (c) Steve Scherf et al.
# Submitted via: ExactAudioCopy v1.3
#
DISCID=b007bc0c
DTITLE=Mitch Woods - Gumbo Blues
DYEAR=2010
DGENRE=Blues
TTITLE0=Gumbo Blues
TTITLE1=Ooh La La
TTITLE2=Caledonia's Party
TTITLE3=Ain't Gonna Do It
TTITLE4=Big Mamou
TTITLE5=Bumpity Bump
TTITLE6=Too Many Drivers
TTITLE7=Lil' Liza Jane
TTITLE8=Blue Monday
TTITLE9=Can't Stop Lovin' You
TTITLE10=I Hear You Knockin'
TTITLE11=Shame Shame Shame
EXTD=
EXTT0=
EXTT1=
EXTT2=
EXTT3=
EXTT4=
EXTT5=
EXTT6=
EXTT7=
EXTT8=
EXTT9=
EXTT10=
EXTT11=
PLAYORDER=
